# xmcd
#
# Track frame offsets:
#	150
#	17133
#	34525
#	45515
#	62476
#	80807
#	100241
#	113821
#	126488
#	142366
#	157891
#
# Disc length: 2342 seconds
#
# Revision: 1
# Processed by: cddbd v1.5.2PL0 Copyright (c) Steve Scherf et al.
# Submitted via: audiograbber 1.83.01
#
DISCID=9309240b
DTITLE=Various Artist - CDX 034
DYEAR=1992
DGENRE=Country
TTITLE0=Kenny Rogers - Bed Of Roses
TTITLE1=Billy Ray Cyrus - Could've Been Me
TTITLE2=Nitty Gritty Dirt Band - I Fought The Law
TTITLE3=The Forrester SIsters - I Got A Date
TTITLE4=Vince Gill - I Still Believe In You
TTITLE5=Dolly Parton - Light Of A Clear Blue Morning
TTITLE6=Black Tie - Listen To The Radio
TTITLE7=Rob Crosby - She Wrote The Book
TTITLE8=George Strait - So Much Like My Daddy
TTITLE9=Tim Mensy - This Ol' Heart
TTITLE10=Rodney Crowell - What Kind Of Love
EXTD=
EXTT0=
EXTT1=
EXTT2=
EXTT3=
EXTT4=
EXTT5=
EXTT6=
EXTT7=
EXTT8=
EXTT9=
EXTT10=
PLAYORDER=
